<?xml version="1.0" encoding="UTF-8"?>
<svg xmlns="http://www.w3.org/2000/svg" xmlns:xlink="http://www.w3.org/1999/xlink" version="1.1" id="Capa_1" x="0px" y="0px" viewBox="0 0 512 512" style="enable-background:new 0 0 512 512;" xml:space="preserve" width="512" height="512">
<g>
	<path style="fill:none;stroke:#a1a1a1;stroke-width:30;stroke-linecap:round;stroke-linejoin:round;stroke-miterlimit:10;" d="&#10;&#9;&#9;M143.533,480.933H111.4c-35.491,0-64.267-28.773-64.267-64.267S75.909,352.4,111.4,352.4h353.467"/>
	
		<line style="fill:none;stroke:#a1a1a1;stroke-width:30;stroke-linecap:round;stroke-linejoin:round;stroke-miterlimit:10;" x1="239.933" y1="480.933" x2="464.867" y2="480.933"/>
	
		<polygon style="fill:none;stroke:#a1a1a1;stroke-width:30;stroke-linecap:round;stroke-linejoin:round;stroke-miterlimit:10;" points="&#10;&#9;&#9;143.533,416.667 143.533,497 191.733,480.933 239.933,497 239.933,416.667 &#9;"/>
	
		<line style="fill:none;stroke:#a1a1a1;stroke-width:30;stroke-linecap:round;stroke-linejoin:round;stroke-miterlimit:10;" x1="111.4" y1="416.667" x2="422.178" y2="416.667"/>
	<path style="fill:none;stroke:#a1a1a1;stroke-width:30;stroke-linecap:round;stroke-linejoin:round;stroke-miterlimit:10;" d="&#10;&#9;&#9;M448.8,480.933c0,0,0-0.003-0.008-0.01c-17.047-17.042-26.614-40.156-26.614-64.257s9.568-47.215,26.614-64.257&#10;&#9;&#9;c0.008-0.006,0.008-0.01,0.008-0.01"/>
	<path style="fill:none;stroke:#a1a1a1;stroke-width:30;stroke-linecap:round;stroke-linejoin:round;stroke-miterlimit:10;" d="&#10;&#9;&#9;M464.867,15H111.4c-17.047,0-33.395,6.771-45.445,18.823c-12.05,12.052-18.822,28.399-18.822,45.444c0,113.458,0,337.4,0,337.4&#10;&#9;&#9;v-0.016c0-17.04,6.772-33.383,18.822-45.432c12.042-12.05,28.39-18.819,45.428-18.819c117.142,0,353.483,0,353.483,0V15z"/>
	<g>
		
			<polyline style="fill:none;stroke:#a1a1a1;stroke-width:30;stroke-linecap:round;stroke-linejoin:round;stroke-miterlimit:10;" points="&#10;&#9;&#9;&#9;143.533,231.9 183.7,135.5 223.867,231.9 &#9;&#9;"/>
		
			<line style="fill:none;stroke:#a1a1a1;stroke-width:30;stroke-linecap:round;stroke-linejoin:round;stroke-miterlimit:10;" x1="150.225" y1="215.833" x2="217.175" y2="215.833"/>
		
			<line style="fill:none;stroke:#a1a1a1;stroke-width:30;stroke-linecap:round;stroke-linejoin:round;stroke-miterlimit:10;" x1="264.033" y1="183.7" x2="296.167" y2="183.7"/>
		
			<polyline style="fill:none;stroke:#a1a1a1;stroke-width:30;stroke-linecap:round;stroke-linejoin:round;stroke-miterlimit:10;" points="&#10;&#9;&#9;&#9;336.333,135.5 400.6,135.5 336.333,231.9 400.6,231.9 &#9;&#9;"/>
	</g>
</g>















</svg>
